<svg xmlns="http://www.w3.org/2000/svg" data-name="Layer 1" viewBox="0 0 98 98"><g data-name="&lt;Group&gt;"><g data-name="&lt;Group&gt;"><path fill="#00efd1" d="M86,41.3V79.7a7,7,0,0,1-7,7H19a7,7,0,0,1-7-7V41.3a7,7,0,0,1,7-7H79A7,7,0,0,1,86,41.3Z" data-name="&lt;Group&gt;"/><path fill="#00acea" d="M77.8 25.8H20.3a2 2 0 0 1 0-4H77.8a2 2 0 0 1 0 4zM69.2 15.3H28.8a2 2 0 0 1 0-4H69.2a2 2 0 0 1 0 4z" data-name="&lt;Group&gt;"/></g><polygon fill="#00acea" points="58.8 60.5 39.6 71.7 39.6 49.3 58.8 60.5" data-name="&lt;Group&gt;"/></g></svg>